<svg id="visual" viewBox="0 0 1700 900" width="1700" height="900" xmlns="http://www.w3.org/2000/svg" xmlns:xlink="http://www.w3.org/1999/xlink" version="1.1"><path d="M0 73L56.7 64C113.3 55 226.7 37 340 34C453.3 31 566.7 43 680 56.5C793.3 70 906.7 85 1020 79C1133.3 73 1246.7 46 1360 43C1473.3 40 1586.7 61 1643.3 71.5L1700 82L1700 0L1643.3 0C1586.7 0 1473.3 0 1360 0C1246.7 0 1133.3 0 1020 0C906.7 0 793.3 0 680 0C566.7 0 453.3 0 340 0C226.7 0 113.3 0 56.7 0L0 0Z" fill="#daffdc"></path><path d="M0 91L56.7 80.5C113.3 70 226.7 49 340 44.5C453.3 40 566.7 52 680 68.5C793.3 85 906.7 106 1020 110.5C1133.3 115 1246.7 103 1360 107.5C1473.3 112 1586.7 133 1643.3 143.5L1700 154L1700 80L1643.3 69.5C1586.7 59 1473.3 38 1360 41C1246.7 44 1133.3 71 1020 77C906.7 83 793.3 68 680 54.5C566.7 41 453.3 29 340 32C226.7 35 113.3 53 56.7 62L0 71Z" fill="#b2e5b4"></path><path d="M0 154L56.7 139C113.3 124 226.7 94 340 80.5C453.3 67 566.7 70 680 85C793.3 100 906.7 127 1020 139C1133.3 151 1246.7 148 1360 152.5C1473.3 157 1586.7 169 1643.3 175L1700 181L1700 152L1643.3 141.5C1586.7 131 1473.3 110 1360 105.5C1246.7 101 1133.3 113 1020 108.5C906.7 104 793.3 83 680 66.5C566.7 50 453.3 38 340 42.5C226.7 47 113.3 68 56.7 78.5L0 89Z" fill="#8aca8c"></path><path d="M0 208L56.7 187C113.3 166 226.7 124 340 107.5C453.3 91 566.7 100 680 118C793.3 136 906.7 163 1020 172C1133.3 181 1246.7 172 1360 170.5C1473.3 169 1586.7 175 1643.3 178L1700 181L1700 179L1643.3 173C1586.7 167 1473.3 155 1360 150.5C1246.7 146 1133.3 149 1020 137C906.7 125 793.3 98 680 83C566.7 68 453.3 65 340 78.5C226.7 92 113.3 122 56.7 137L0 152Z" fill="#62b064"></path><path d="M0 262L56.7 256C113.3 250 226.7 238 340 220C453.3 202 566.7 178 680 187C793.3 196 906.7 238 1020 247C1133.3 256 1246.7 232 1360 251.5C1473.3 271 1586.7 334 1643.3 365.5L1700 397L1700 179L1643.3 176C1586.7 173 1473.3 167 1360 168.5C1246.7 170 1133.3 179 1020 170C906.7 161 793.3 134 680 116C566.7 98 453.3 89 340 105.5C226.7 122 113.3 164 56.7 185L0 206Z" fill="#37963d"></path><path d="M0 397L56.7 395.5C113.3 394 226.7 391 340 389.5C453.3 388 566.7 388 680 380.5C793.3 373 906.7 358 1020 349C1133.3 340 1246.7 337 1360 364C1473.3 391 1586.7 448 1643.3 476.5L1700 505L1700 395L1643.3 363.5C1586.7 332 1473.3 269 1360 249.5C1246.7 230 1133.3 254 1020 245C906.7 236 793.3 194 680 185C566.7 176 453.3 200 340 218C226.7 236 113.3 248 56.7 254L0 260Z" fill="#218c2c"></path><path d="M0 478L56.7 476.5C113.3 475 226.7 472 340 470.5C453.3 469 566.7 469 680 454C793.3 439 906.7 409 1020 397C1133.3 385 1246.7 391 1360 418C1473.3 445 1586.7 493 1643.3 517L1700 541L1700 503L1643.3 474.5C1586.7 446 1473.3 389 1360 362C1246.7 335 1133.3 338 1020 347C906.7 356 793.3 371 680 378.5C566.7 386 453.3 386 340 387.5C226.7 389 113.3 392 56.7 393.5L0 395Z" fill="#218c2c"></path><path d="M0 523L56.7 524.5C113.3 526 226.7 529 340 521.5C453.3 514 566.7 496 680 479.5C793.3 463 906.7 448 1020 440.5C1133.3 433 1246.7 433 1360 451C1473.3 469 1586.7 505 1643.3 523L1700 541L1700 539L1643.3 515C1586.7 491 1473.3 443 1360 416C1246.7 389 1133.3 383 1020 395C906.7 407 793.3 437 680 452C566.7 467 453.3 467 340 468.5C226.7 470 113.3 473 56.7 474.5L0 476Z" fill="#37963d"></path><path d="M0 793L56.7 769C113.3 745 226.7 697 340 668.5C453.3 640 566.7 631 680 638.5C793.3 646 906.7 670 1020 689.5C1133.3 709 1246.7 724 1360 736C1473.3 748 1586.7 757 1643.3 761.5L1700 766L1700 539L1643.3 521C1586.7 503 1473.3 467 1360 449C1246.7 431 1133.3 431 1020 438.5C906.7 446 793.3 461 680 477.5C566.7 494 453.3 512 340 519.5C226.7 527 113.3 524 56.7 522.5L0 521Z" fill="#62b064"></path><path d="M0 829L56.7 809.5C113.3 790 226.7 751 340 727C453.3 703 566.7 694 680 698.5C793.3 703 906.7 721 1020 733C1133.3 745 1246.7 751 1360 772C1473.3 793 1586.7 829 1643.3 847L1700 865L1700 764L1643.3 759.5C1586.7 755 1473.3 746 1360 734C1246.7 722 1133.3 707 1020 687.5C906.7 668 793.3 644 680 636.5C566.7 629 453.3 638 340 666.5C226.7 695 113.3 743 56.7 767L0 791Z" fill="#8aca8c"></path><path d="M0 883L56.7 860.5C113.3 838 226.7 793 340 773.5C453.3 754 566.7 760 680 773.5C793.3 787 906.7 808 1020 823C1133.3 838 1246.7 847 1360 854.5C1473.3 862 1586.7 868 1643.3 871L1700 874L1700 863L1643.3 845C1586.7 827 1473.3 791 1360 770C1246.7 749 1133.3 743 1020 731C906.7 719 793.3 701 680 696.5C566.7 692 453.3 701 340 725C226.7 749 113.3 788 56.7 807.5L0 827Z" fill="#b2e5b4"></path><path d="M0 901L56.7 901C113.3 901 226.7 901 340 901C453.3 901 566.7 901 680 901C793.3 901 906.7 901 1020 901C1133.3 901 1246.7 901 1360 901C1473.3 901 1586.7 901 1643.3 901L1700 901L1700 872L1643.3 869C1586.7 866 1473.3 860 1360 852.5C1246.7 845 1133.3 836 1020 821C906.7 806 793.3 785 680 771.5C566.7 758 453.3 752 340 771.5C226.7 791 113.3 836 56.7 858.5L0 881Z" fill="#daffdc"></path></svg>